<svg xmlns="http://www.w3.org/2000/svg" version="1.1" xmlns:xlink="http://www.w3.org/1999/xlink" xmlns:svgjs="http://svgjs.dev/svgjs" width="1280" height="720" preserveAspectRatio="none" viewBox="0 0 1280 720"><g mask="url(&quot;#SvgjsMask1056&quot;)" fill="none"><rect width="1280" height="720" x="0" y="0" fill="rgba(243, 241, 241, 1)"></rect><path d="M-62.27 707.24L-62.27 707.24" stroke="rgba(255, 255, 255, 1)" stroke-width="1.5"></path><path d="M-62.27 707.24L43.11 640.63" stroke="rgba(255, 255, 255, 1)" stroke-width="1.5"></path><path d="M-62.27 707.24L-66.84 842.02" stroke="rgba(255, 255, 255, 1)" stroke-width="1.5"></path><path d="M-62.27 707.24L37.83 803.74" stroke="rgba(255, 255, 255, 1)" stroke-width="1.5"></path><path d="M-62.27 707.24L40.85 509.9" stroke="rgba(255, 255, 255, 1)" stroke-width="1.5"></path><path d="M-66.84 842.02L-66.84 842.02" stroke="rgba(255, 255, 255, 1)" stroke-width="1.5"></path><path d="M-66.84 842.02L37.83 803.74" stroke="rgba(255, 255, 255, 1)" stroke-width="1.5"></path><path d="M-66.84 842.02L43.11 640.63" stroke="rgba(255, 255, 255, 1)" stroke-width="1.5"></path><path d="M-66.84 842.02L200.36 850.09" stroke="rgba(255, 255, 255, 1)" stroke-width="1.5"></path><path d="M40.85 509.9L40.85 509.9" stroke="rgba(255, 255, 255, 1)" stroke-width="1.5"></path><path d="M40.85 509.9L43.11 640.63" stroke="rgba(255, 255, 255, 1)" stroke-width="1.5"></path><path d="M40.85 509.9L207.45 516.21" stroke="rgba(255, 255, 255, 1)" stroke-width="1.5"></path><path d="M40.85 509.9L252.13 710.33" stroke="rgba(255, 255, 255, 1)" stroke-width="1.5"></path><path d="M40.85 509.9L37.83 803.74" stroke="rgba(255, 255, 255, 1)" stroke-width="1.5"></path><path d="M40.85 509.9L-66.84 842.02" stroke="rgba(255, 255, 255, 1)" stroke-width="1.5"></path><path d="M43.11 640.63L43.11 640.63" stroke="rgba(255, 255, 255, 1)" stroke-width="1.5"></path><path d="M43.11 640.63L37.83 803.74" stroke="rgba(255, 255, 255, 1)" stroke-width="1.5"></path><path d="M37.83 803.74L37.83 803.74" stroke="rgba(255, 255, 255, 1)" stroke-width="1.5"></path><path d="M207.45 516.21L207.45 516.21" stroke="rgba(255, 255, 255, 1)" stroke-width="1.5"></path><path d="M207.45 516.21L398.07 525.33" stroke="rgba(255, 255, 255, 1)" stroke-width="1.5"></path><path d="M207.45 516.21L252.13 710.33" stroke="rgba(255, 255, 255, 1)" stroke-width="1.5"></path><path d="M207.45 516.21L43.11 640.63" stroke="rgba(255, 255, 255, 1)" stroke-width="1.5"></path><path d="M252.13 710.33L252.13 710.33" stroke="rgba(255, 255, 255, 1)" stroke-width="1.5"></path><path d="M252.13 710.33L200.36 850.09" stroke="rgba(255, 255, 255, 1)" stroke-width="1.5"></path><path d="M252.13 710.33L383.68 640.09" stroke="rgba(255, 255, 255, 1)" stroke-width="1.5"></path><path d="M252.13 710.33L347.77 861.54" stroke="rgba(255, 255, 255, 1)" stroke-width="1.5"></path><path d="M252.13 710.33L43.11 640.63" stroke="rgba(255, 255, 255, 1)" stroke-width="1.5"></path><path d="M252.13 710.33L37.83 803.74" stroke="rgba(255, 255, 255, 1)" stroke-width="1.5"></path><path d="M200.36 850.09L200.36 850.09" stroke="rgba(255, 255, 255, 1)" stroke-width="1.5"></path><path d="M200.36 850.09L347.77 861.54" stroke="rgba(255, 255, 255, 1)" stroke-width="1.5"></path><path d="M200.36 850.09L37.83 803.74" stroke="rgba(255, 255, 255, 1)" stroke-width="1.5"></path><path d="M200.36 850.09L43.11 640.63" stroke="rgba(255, 255, 255, 1)" stroke-width="1.5"></path><path d="M395.7 381.5L395.7 381.5" stroke="rgba(255, 255, 255, 1)" stroke-width="1.5"></path><path d="M395.7 381.5L492.84 386.52" stroke="rgba(255, 255, 255, 1)" stroke-width="1.5"></path><path d="M395.7 381.5L398.07 525.33" stroke="rgba(255, 255, 255, 1)" stroke-width="1.5"></path><path d="M395.7 381.5L514.61 522.82" stroke="rgba(255, 255, 255, 1)" stroke-width="1.5"></path><path d="M395.7 381.5L207.45 516.21" stroke="rgba(255, 255, 255, 1)" stroke-width="1.5"></path><path d="M395.7 381.5L383.68 640.09" stroke="rgba(255, 255, 255, 1)" stroke-width="1.5"></path><path d="M395.7 381.5L651.2 254.6" stroke="rgba(255, 255, 255, 1)" stroke-width="1.5"></path><path d="M398.07 525.33L398.07 525.33" stroke="rgba(255, 255, 255, 1)" stroke-width="1.5"></path><path d="M398.07 525.33L383.68 640.09" stroke="rgba(255, 255, 255, 1)" stroke-width="1.5"></path><path d="M398.07 525.33L514.61 522.82" stroke="rgba(255, 255, 255, 1)" stroke-width="1.5"></path><path d="M398.07 525.33L492.84 386.52" stroke="rgba(255, 255, 255, 1)" stroke-width="1.5"></path><path d="M398.07 525.33L501.42 675.54" stroke="rgba(255, 255, 255, 1)" stroke-width="1.5"></path><path d="M383.68 640.09L383.68 640.09" stroke="rgba(255, 255, 255, 1)" stroke-width="1.5"></path><path d="M383.68 640.09L501.42 675.54" stroke="rgba(255, 255, 255, 1)" stroke-width="1.5"></path><path d="M383.68 640.09L514.61 522.82" stroke="rgba(255, 255, 255, 1)" stroke-width="1.5"></path><path d="M383.68 640.09L207.45 516.21" stroke="rgba(255, 255, 255, 1)" stroke-width="1.5"></path><path d="M347.77 861.54L347.77 861.54" stroke="rgba(255, 255, 255, 1)" stroke-width="1.5"></path><path d="M347.77 861.54L547.48 849.66" stroke="rgba(255, 255, 255, 1)" stroke-width="1.5"></path><path d="M347.77 861.54L383.68 640.09" stroke="rgba(255, 255, 255, 1)" stroke-width="1.5"></path><path d="M492.84 386.52L492.84 386.52" stroke="rgba(255, 255, 255, 1)" stroke-width="1.5"></path><path d="M492.84 386.52L514.61 522.82" stroke="rgba(255, 255, 255, 1)" stroke-width="1.5"></path><path d="M514.61 522.82L514.61 522.82" stroke="rgba(255, 255, 255, 1)" stroke-width="1.5"></path><path d="M514.61 522.82L501.42 675.54" stroke="rgba(255, 255, 255, 1)" stroke-width="1.5"></path><path d="M514.61 522.82L678.71 499.91" stroke="rgba(255, 255, 255, 1)" stroke-width="1.5"></path><path d="M501.42 675.54L501.42 675.54" stroke="rgba(255, 255, 255, 1)" stroke-width="1.5"></path><path d="M501.42 675.54L648.93 676.34" stroke="rgba(255, 255, 255, 1)" stroke-width="1.5"></path><path d="M547.48 849.66L547.48 849.66" stroke="rgba(255, 255, 255, 1)" stroke-width="1.5"></path><path d="M547.48 849.66L654.41 830.57" stroke="rgba(255, 255, 255, 1)" stroke-width="1.5"></path><path d="M547.48 849.66L501.42 675.54" stroke="rgba(255, 255, 255, 1)" stroke-width="1.5"></path><path d="M651.2 254.6L651.2 254.6" stroke="rgba(255, 255, 255, 1)" stroke-width="1.5"></path><path d="M651.2 254.6L845.7 203.9" stroke="rgba(255, 255, 255, 1)" stroke-width="1.5"></path><path d="M651.2 254.6L492.84 386.52" stroke="rgba(255, 255, 255, 1)" stroke-width="1.5"></path><path d="M651.2 254.6L859.7 366.78" stroke="rgba(255, 255, 255, 1)" stroke-width="1.5"></path><path d="M651.2 254.6L678.71 499.91" stroke="rgba(255, 255, 255, 1)" stroke-width="1.5"></path><path d="M678.71 499.91L678.71 499.91" stroke="rgba(255, 255, 255, 1)" stroke-width="1.5"></path><path d="M678.71 499.91L648.93 676.34" stroke="rgba(255, 255, 255, 1)" stroke-width="1.5"></path><path d="M648.93 676.34L648.93 676.34" stroke="rgba(255, 255, 255, 1)" stroke-width="1.5"></path><path d="M654.41 830.57L654.41 830.57" stroke="rgba(255, 255, 255, 1)" stroke-width="1.5"></path><path d="M654.41 830.57L648.93 676.34" stroke="rgba(255, 255, 255, 1)" stroke-width="1.5"></path><path d="M654.41 830.57L844.95 852.17" stroke="rgba(255, 255, 255, 1)" stroke-width="1.5"></path><path d="M654.41 830.57L501.42 675.54" stroke="rgba(255, 255, 255, 1)" stroke-width="1.5"></path><path d="M654.41 830.57L848.33 652.46" stroke="rgba(255, 255, 255, 1)" stroke-width="1.5"></path><path d="M654.41 830.57L347.77 861.54" stroke="rgba(255, 255, 255, 1)" stroke-width="1.5"></path><path d="M828.8 -43.85L828.8 -43.85" stroke="rgba(255, 255, 255, 1)" stroke-width="1.5"></path><path d="M828.8 -43.85L840.15 58.03" stroke="rgba(255, 255, 255, 1)" stroke-width="1.5"></path><path d="M828.8 -43.85L941.71 -78.83" stroke="rgba(255, 255, 255, 1)" stroke-width="1.5"></path><path d="M828.8 -43.85L960.56 73.79" stroke="rgba(255, 255, 255, 1)" stroke-width="1.5"></path><path d="M828.8 -43.85L845.7 203.9" stroke="rgba(255, 255, 255, 1)" stroke-width="1.5"></path><path d="M828.8 -43.85L1092.19 -105.34" stroke="rgba(255, 255, 255, 1)" stroke-width="1.5"></path><path d="M840.15 58.03L840.15 58.03" stroke="rgba(255, 255, 255, 1)" stroke-width="1.5"></path><path d="M840.15 58.03L960.56 73.79" stroke="rgba(255, 255, 255, 1)" stroke-width="1.5"></path><path d="M840.15 58.03L845.7 203.9" stroke="rgba(255, 255, 255, 1)" stroke-width="1.5"></path><path d="M845.7 203.9L845.7 203.9" stroke="rgba(255, 255, 255, 1)" stroke-width="1.5"></path><path d="M845.7 203.9L859.7 366.78" stroke="rgba(255, 255, 255, 1)" stroke-width="1.5"></path><path d="M859.7 366.78L859.7 366.78" stroke="rgba(255, 255, 255, 1)" stroke-width="1.5"></path><path d="M859.7 366.78L963.95 345.8" stroke="rgba(255, 255, 255, 1)" stroke-width="1.5"></path><path d="M859.7 366.78L861.46 532.73" stroke="rgba(255, 255, 255, 1)" stroke-width="1.5"></path><path d="M861.46 532.73L861.46 532.73" stroke="rgba(255, 255, 255, 1)" stroke-width="1.5"></path><path d="M861.46 532.73L848.33 652.46" stroke="rgba(255, 255, 255, 1)" stroke-width="1.5"></path><path d="M861.46 532.73L996.21 489.41" stroke="rgba(255, 255, 255, 1)" stroke-width="1.5"></path><path d="M861.46 532.73L678.71 499.91" stroke="rgba(255, 255, 255, 1)" stroke-width="1.5"></path><path d="M848.33 652.46L848.33 652.46" stroke="rgba(255, 255, 255, 1)" stroke-width="1.5"></path><path d="M848.33 652.46L1002.76 708.13" stroke="rgba(255, 255, 255, 1)" stroke-width="1.5"></path><path d="M844.95 852.17L844.95 852.17" stroke="rgba(255, 255, 255, 1)" stroke-width="1.5"></path><path d="M844.95 852.17L982.17 861.37" stroke="rgba(255, 255, 255, 1)" stroke-width="1.5"></path><path d="M941.71 -78.83L941.71 -78.83" stroke="rgba(255, 255, 255, 1)" stroke-width="1.5"></path><path d="M941.71 -78.83L1092.19 -105.34" stroke="rgba(255, 255, 255, 1)" stroke-width="1.5"></path><path d="M941.71 -78.83L960.56 73.79" stroke="rgba(255, 255, 255, 1)" stroke-width="1.5"></path><path d="M941.71 -78.83L840.15 58.03" stroke="rgba(255, 255, 255, 1)" stroke-width="1.5"></path><path d="M941.71 -78.83L1141.41 52.89" stroke="rgba(255, 255, 255, 1)" stroke-width="1.5"></path><path d="M941.71 -78.83L845.7 203.9" stroke="rgba(255, 255, 255, 1)" stroke-width="1.5"></path><path d="M960.56 73.79L960.56 73.79" stroke="rgba(255, 255, 255, 1)" stroke-width="1.5"></path><path d="M960.56 73.79L1009.91 213.8" stroke="rgba(255, 255, 255, 1)" stroke-width="1.5"></path><path d="M1009.91 213.8L1009.91 213.8" stroke="rgba(255, 255, 255, 1)" stroke-width="1.5"></path><path d="M1009.91 213.8L1137.01 237.36" stroke="rgba(255, 255, 255, 1)" stroke-width="1.5"></path><path d="M963.95 345.8L963.95 345.8" stroke="rgba(255, 255, 255, 1)" stroke-width="1.5"></path><path d="M963.95 345.8L1103.46 340.41" stroke="rgba(255, 255, 255, 1)" stroke-width="1.5"></path><path d="M963.95 345.8L1009.91 213.8" stroke="rgba(255, 255, 255, 1)" stroke-width="1.5"></path><path d="M963.95 345.8L996.21 489.41" stroke="rgba(255, 255, 255, 1)" stroke-width="1.5"></path><path d="M996.21 489.41L996.21 489.41" stroke="rgba(255, 255, 255, 1)" stroke-width="1.5"></path><path d="M996.21 489.41L1154.6 489.99" stroke="rgba(255, 255, 255, 1)" stroke-width="1.5"></path><path d="M996.21 489.41L859.7 366.78" stroke="rgba(255, 255, 255, 1)" stroke-width="1.5"></path><path d="M1002.76 708.13L1002.76 708.13" stroke="rgba(255, 255, 255, 1)" stroke-width="1.5"></path><path d="M1002.76 708.13L1094.33 666.82" stroke="rgba(255, 255, 255, 1)" stroke-width="1.5"></path><path d="M1002.76 708.13L982.17 861.37" stroke="rgba(255, 255, 255, 1)" stroke-width="1.5"></path><path d="M1002.76 708.13L1103.85 837.39" stroke="rgba(255, 255, 255, 1)" stroke-width="1.5"></path><path d="M982.17 861.37L982.17 861.37" stroke="rgba(255, 255, 255, 1)" stroke-width="1.5"></path><path d="M982.17 861.37L1103.85 837.39" stroke="rgba(255, 255, 255, 1)" stroke-width="1.5"></path><path d="M982.17 861.37L1094.33 666.82" stroke="rgba(255, 255, 255, 1)" stroke-width="1.5"></path><path d="M1092.19 -105.34L1092.19 -105.34" stroke="rgba(255, 255, 255, 1)" stroke-width="1.5"></path><path d="M1092.19 -105.34L1141.41 52.89" stroke="rgba(255, 255, 255, 1)" stroke-width="1.5"></path><path d="M1092.19 -105.34L1299.42 -57.24" stroke="rgba(255, 255, 255, 1)" stroke-width="1.5"></path><path d="M1092.19 -105.34L960.56 73.79" stroke="rgba(255, 255, 255, 1)" stroke-width="1.5"></path><path d="M1141.41 52.89L1141.41 52.89" stroke="rgba(255, 255, 255, 1)" stroke-width="1.5"></path><path d="M1141.41 52.89L1269.73 109.85" stroke="rgba(255, 255, 255, 1)" stroke-width="1.5"></path><path d="M1137.01 237.36L1137.01 237.36" stroke="rgba(255, 255, 255, 1)" stroke-width="1.5"></path><path d="M1137.01 237.36L1103.46 340.41" stroke="rgba(255, 255, 255, 1)" stroke-width="1.5"></path><path d="M1103.46 340.41L1103.46 340.41" stroke="rgba(255, 255, 255, 1)" stroke-width="1.5"></path><path d="M1154.6 489.99L1154.6 489.99" stroke="rgba(255, 255, 255, 1)" stroke-width="1.5"></path><path d="M1154.6 489.99L1288.7 541.35" stroke="rgba(255, 255, 255, 1)" stroke-width="1.5"></path><path d="M1154.6 489.99L1103.46 340.41" stroke="rgba(255, 255, 255, 1)" stroke-width="1.5"></path><path d="M1154.6 489.99L1297.37 375.56" stroke="rgba(255, 255, 255, 1)" stroke-width="1.5"></path><path d="M1154.6 489.99L1094.33 666.82" stroke="rgba(255, 255, 255, 1)" stroke-width="1.5"></path><path d="M1094.33 666.82L1094.33 666.82" stroke="rgba(255, 255, 255, 1)" stroke-width="1.5"></path><path d="M1094.33 666.82L1103.85 837.39" stroke="rgba(255, 255, 255, 1)" stroke-width="1.5"></path><path d="M1094.33 666.82L996.21 489.41" stroke="rgba(255, 255, 255, 1)" stroke-width="1.5"></path><path d="M1094.33 666.82L1311.34 638.47" stroke="rgba(255, 255, 255, 1)" stroke-width="1.5"></path><path d="M1103.85 837.39L1103.85 837.39" stroke="rgba(255, 255, 255, 1)" stroke-width="1.5"></path><path d="M1103.85 837.39L1301 841.19" stroke="rgba(255, 255, 255, 1)" stroke-width="1.5"></path><path d="M1299.42 -57.24L1299.42 -57.24" stroke="rgba(255, 255, 255, 1)" stroke-width="1.5"></path><path d="M1299.42 -57.24L1433.37 -39.5" stroke="rgba(255, 255, 255, 1)" stroke-width="1.5"></path><path d="M1299.42 -57.24L1421.59 48.12" stroke="rgba(255, 255, 255, 1)" stroke-width="1.5"></path><path d="M1299.42 -57.24L1269.73 109.85" stroke="rgba(255, 255, 255, 1)" stroke-width="1.5"></path><path d="M1299.42 -57.24L1141.41 52.89" stroke="rgba(255, 255, 255, 1)" stroke-width="1.5"></path><path d="M1269.73 109.85L1269.73 109.85" stroke="rgba(255, 255, 255, 1)" stroke-width="1.5"></path><path d="M1269.73 109.85L1306.18 261.04" stroke="rgba(255, 255, 255, 1)" stroke-width="1.5"></path><path d="M1269.73 109.85L1421.59 48.12" stroke="rgba(255, 255, 255, 1)" stroke-width="1.5"></path><path d="M1306.18 261.04L1306.18 261.04" stroke="rgba(255, 255, 255, 1)" stroke-width="1.5"></path><path d="M1306.18 261.04L1297.37 375.56" stroke="rgba(255, 255, 255, 1)" stroke-width="1.5"></path><path d="M1297.37 375.56L1297.37 375.56" stroke="rgba(255, 255, 255, 1)" stroke-width="1.5"></path><path d="M1297.37 375.56L1448.01 370.39" stroke="rgba(255, 255, 255, 1)" stroke-width="1.5"></path><path d="M1288.7 541.35L1288.7 541.35" stroke="rgba(255, 255, 255, 1)" stroke-width="1.5"></path><path d="M1288.7 541.35L1311.34 638.47" stroke="rgba(255, 255, 255, 1)" stroke-width="1.5"></path><path d="M1288.7 541.35L1450.47 556.91" stroke="rgba(255, 255, 255, 1)" stroke-width="1.5"></path><path d="M1288.7 541.35L1297.37 375.56" stroke="rgba(255, 255, 255, 1)" stroke-width="1.5"></path><path d="M1311.34 638.47L1311.34 638.47" stroke="rgba(255, 255, 255, 1)" stroke-width="1.5"></path><path d="M1311.34 638.47L1416.74 673.2" stroke="rgba(255, 255, 255, 1)" stroke-width="1.5"></path><path d="M1311.34 638.47L1450.47 556.91" stroke="rgba(255, 255, 255, 1)" stroke-width="1.5"></path><path d="M1301 841.19L1301 841.19" stroke="rgba(255, 255, 255, 1)" stroke-width="1.5"></path><path d="M1301 841.19L1387.65 839.36" stroke="rgba(255, 255, 255, 1)" stroke-width="1.5"></path><path d="M1301 841.19L1311.34 638.47" stroke="rgba(255, 255, 255, 1)" stroke-width="1.5"></path><path d="M1301 841.19L1416.74 673.2" stroke="rgba(255, 255, 255, 1)" stroke-width="1.5"></path><path d="M1433.37 -39.5L1433.37 -39.5" stroke="rgba(255, 255, 255, 1)" stroke-width="1.5"></path><path d="M1433.37 -39.5L1421.59 48.12" stroke="rgba(255, 255, 255, 1)" stroke-width="1.5"></path><path d="M1433.37 -39.5L1269.73 109.85" stroke="rgba(255, 255, 255, 1)" stroke-width="1.5"></path><path d="M1433.37 -39.5L1446.1 190.53" stroke="rgba(255, 255, 255, 1)" stroke-width="1.5"></path><path d="M1433.37 -39.5L1141.41 52.89" stroke="rgba(255, 255, 255, 1)" stroke-width="1.5"></path><path d="M1433.37 -39.5L1306.18 261.04" stroke="rgba(255, 255, 255, 1)" stroke-width="1.5"></path><path d="M1421.59 48.12L1421.59 48.12" stroke="rgba(255, 255, 255, 1)" stroke-width="1.5"></path><path d="M1421.59 48.12L1446.1 190.53" stroke="rgba(255, 255, 255, 1)" stroke-width="1.5"></path><path d="M1446.1 190.53L1446.1 190.53" stroke="rgba(255, 255, 255, 1)" stroke-width="1.5"></path><path d="M1446.1 190.53L1306.18 261.04" stroke="rgba(255, 255, 255, 1)" stroke-width="1.5"></path><path d="M1446.1 190.53L1448.01 370.39" stroke="rgba(255, 255, 255, 1)" stroke-width="1.5"></path><path d="M1446.1 190.53L1269.73 109.85" stroke="rgba(255, 255, 255, 1)" stroke-width="1.5"></path><path d="M1448.01 370.39L1448.01 370.39" stroke="rgba(255, 255, 255, 1)" stroke-width="1.5"></path><path d="M1448.01 370.39L1306.18 261.04" stroke="rgba(255, 255, 255, 1)" stroke-width="1.5"></path><path d="M1448.01 370.39L1450.47 556.91" stroke="rgba(255, 255, 255, 1)" stroke-width="1.5"></path><path d="M1450.47 556.91L1450.47 556.91" stroke="rgba(255, 255, 255, 1)" stroke-width="1.5"></path><path d="M1450.47 556.91L1416.74 673.2" stroke="rgba(255, 255, 255, 1)" stroke-width="1.5"></path><path d="M1416.74 673.2L1416.74 673.2" stroke="rgba(255, 255, 255, 1)" stroke-width="1.5"></path><path d="M1416.74 673.2L1387.65 839.36" stroke="rgba(255, 255, 255, 1)" stroke-width="1.5"></path><path d="M1387.65 839.36L1387.65 839.36" stroke="rgba(255, 255, 255, 1)" stroke-width="1.5"></path><path d="M1387.65 839.36L1311.34 638.47" stroke="rgba(255, 255, 255, 1)" stroke-width="1.5"></path><circle r="5" cx="-62.27" cy="707.24" fill="rgba(255, 255, 255, 1)"></circle><circle r="5" cx="-66.84" cy="842.02" fill="rgba(255, 255, 255, 1)"></circle><circle r="5" cx="40.85" cy="509.9" fill="rgba(255, 255, 255, 1)"></circle><circle r="5" cx="43.11" cy="640.63" fill="rgba(255, 255, 255, 1)"></circle><circle r="5" cx="37.83" cy="803.74" fill="rgba(255, 255, 255, 1)"></circle><circle r="5" cx="207.45" cy="516.21" fill="rgba(255, 255, 255, 1)"></circle><circle r="5" cx="252.13" cy="710.33" fill="rgba(255, 255, 255, 1)"></circle><circle r="5" cx="200.36" cy="850.09" fill="rgba(255, 255, 255, 1)"></circle><circle r="5" cx="395.7" cy="381.5" fill="rgba(255, 255, 255, 1)"></circle><circle r="5" cx="398.07" cy="525.33" fill="rgba(255, 255, 255, 1)"></circle><circle r="5" cx="383.68" cy="640.09" fill="rgba(255, 255, 255, 1)"></circle><circle r="5" cx="347.77" cy="861.54" fill="rgba(255, 255, 255, 1)"></circle><circle r="5" cx="492.84" cy="386.52" fill="rgba(255, 255, 255, 1)"></circle><circle r="5" cx="514.61" cy="522.82" fill="rgba(255, 255, 255, 1)"></circle><circle r="5" cx="501.42" cy="675.54" fill="rgba(255, 255, 255, 1)"></circle><circle r="5" cx="547.48" cy="849.66" fill="rgba(255, 255, 255, 1)"></circle><circle r="5" cx="651.2" cy="254.6" fill="rgba(255, 255, 255, 1)"></circle><circle r="5" cx="678.71" cy="499.91" fill="rgba(255, 255, 255, 1)"></circle><circle r="5" cx="648.93" cy="676.34" fill="rgba(255, 255, 255, 1)"></circle><circle r="5" cx="654.41" cy="830.57" fill="rgba(255, 255, 255, 1)"></circle><circle r="5" cx="828.8" cy="-43.85" fill="rgba(255, 255, 255, 1)"></circle><circle r="5" cx="840.15" cy="58.03" fill="rgba(255, 255, 255, 1)"></circle><circle r="5" cx="845.7" cy="203.9" fill="rgba(255, 255, 255, 1)"></circle><circle r="5" cx="859.7" cy="366.78" fill="rgba(255, 255, 255, 1)"></circle><circle r="5" cx="861.46" cy="532.73" fill="rgba(255, 255, 255, 1)"></circle><circle r="5" cx="848.33" cy="652.46" fill="rgba(255, 255, 255, 1)"></circle><circle r="5" cx="844.95" cy="852.17" fill="rgba(255, 255, 255, 1)"></circle><circle r="5" cx="941.71" cy="-78.83" fill="rgba(255, 255, 255, 1)"></circle><circle r="5" cx="960.56" cy="73.79" fill="rgba(255, 255, 255, 1)"></circle><circle r="5" cx="1009.91" cy="213.8" fill="rgba(255, 255, 255, 1)"></circle><circle r="5" cx="963.95" cy="345.8" fill="rgba(255, 255, 255, 1)"></circle><circle r="5" cx="996.21" cy="489.41" fill="rgba(255, 255, 255, 1)"></circle><circle r="5" cx="1002.76" cy="708.13" fill="rgba(255, 255, 255, 1)"></circle><circle r="5" cx="982.17" cy="861.37" fill="rgba(255, 255, 255, 1)"></circle><circle r="5" cx="1092.19" cy="-105.34" fill="rgba(255, 255, 255, 1)"></circle><circle r="5" cx="1141.41" cy="52.89" fill="rgba(255, 255, 255, 1)"></circle><circle r="5" cx="1137.01" cy="237.36" fill="rgba(255, 255, 255, 1)"></circle><circle r="5" cx="1103.46" cy="340.41" fill="rgba(255, 255, 255, 1)"></circle><circle r="5" cx="1154.6" cy="489.99" fill="rgba(255, 255, 255, 1)"></circle><circle r="5" cx="1094.33" cy="666.82" fill="rgba(255, 255, 255, 1)"></circle><circle r="5" cx="1103.85" cy="837.39" fill="rgba(255, 255, 255, 1)"></circle><circle r="5" cx="1299.42" cy="-57.24" fill="rgba(255, 255, 255, 1)"></circle><circle r="5" cx="1269.73" cy="109.85" fill="rgba(255, 255, 255, 1)"></circle><circle r="5" cx="1306.18" cy="261.04" fill="rgba(255, 255, 255, 1)"></circle><circle r="5" cx="1297.37" cy="375.56" fill="rgba(255, 255, 255, 1)"></circle><circle r="5" cx="1288.7" cy="541.35" fill="rgba(255, 255, 255, 1)"></circle><circle r="5" cx="1311.34" cy="638.47" fill="rgba(255, 255, 255, 1)"></circle><circle r="5" cx="1301" cy="841.19" fill="rgba(255, 255, 255, 1)"></circle><circle r="5" cx="1433.37" cy="-39.5" fill="rgba(255, 255, 255, 1)"></circle><circle r="5" cx="1421.59" cy="48.12" fill="rgba(255, 255, 255, 1)"></circle><circle r="5" cx="1446.1" cy="190.53" fill="rgba(255, 255, 255, 1)"></circle><circle r="5" cx="1448.01" cy="370.39" fill="rgba(255, 255, 255, 1)"></circle><circle r="5" cx="1450.47" cy="556.91" fill="rgba(255, 255, 255, 1)"></circle><circle r="5" cx="1416.74" cy="673.2" fill="rgba(255, 255, 255, 1)"></circle><circle r="5" cx="1387.65" cy="839.36" fill="rgba(255, 255, 255, 1)"></circle><path d="M560.27 646.4L560.27 646.4" stroke="hsl(193.29999999999995, 48.3%, 77.7%)" stroke-width="1.5"></path><path d="M560.27 646.4L554.56 542.36" stroke="hsl(193.29999999999995, 48.3%, 77.7%)" stroke-width="1.5"></path><path d="M560.27 646.4L703.26 709.61" stroke="hsl(193.29999999999995, 48.3%, 77.7%)" stroke-width="1.5"></path><path d="M688.06 545.01L688.06 545.01" stroke="hsl(193.29999999999995, 48.3%, 77.7%)" stroke-width="1.5"></path><path d="M688.06 545.01L808.52 532.58" stroke="hsl(193.29999999999995, 48.3%, 77.7%)" stroke-width="1.5"></path><path d="M808.52 532.58L808.52 532.58" stroke="hsl(193.29999999999995, 48.3%, 77.7%)" stroke-width="1.5"></path><path d="M808.52 532.58L803.1 381.64" stroke="hsl(193.29999999999995, 48.3%, 77.7%)" stroke-width="1.5"></path><path d="M953.88 687.16L953.88 687.16" stroke="hsl(193.29999999999995, 48.3%, 77.7%)" stroke-width="1.5"></path><path d="M953.88 687.16L997.67 528.24" stroke="hsl(193.29999999999995, 48.3%, 77.7%)" stroke-width="1.5"></path><path d="M953.88 687.16L988.25 852.03" stroke="hsl(193.29999999999995, 48.3%, 77.7%)" stroke-width="1.5"></path><path d="M953.88 687.16L1097.92 802.99" stroke="hsl(193.29999999999995, 48.3%, 77.7%)" stroke-width="1.5"></path><path d="M953.88 687.16L1154.14 711.41" stroke="hsl(193.29999999999995, 48.3%, 77.7%)" stroke-width="1.5"></path><path d="M953.88 687.16L831.41 854.09" stroke="hsl(193.29999999999995, 48.3%, 77.7%)" stroke-width="1.5"></path><path d="M953.88 687.16L808.52 532.58" stroke="hsl(193.29999999999995, 48.3%, 77.7%)" stroke-width="1.5"></path><path d="M988.25 852.03L988.25 852.03" stroke="hsl(193.29999999999995, 48.3%, 77.7%)" stroke-width="1.5"></path><path d="M988.25 852.03L1097.92 802.99" stroke="hsl(193.29999999999995, 48.3%, 77.7%)" stroke-width="1.5"></path><path d="M988.25 852.03L831.41 854.09" stroke="hsl(193.29999999999995, 48.3%, 77.7%)" stroke-width="1.5"></path><path d="M1140.88 204.66L1140.88 204.66" stroke="hsl(193.29999999999995, 48.3%, 77.7%)" stroke-width="1.5"></path><path d="M1140.88 204.66L1128.31 97.49" stroke="hsl(193.29999999999995, 48.3%, 77.7%)" stroke-width="1.5"></path><path d="M1140.88 204.66L1270.27 195.05" stroke="hsl(193.29999999999995, 48.3%, 77.7%)" stroke-width="1.5"></path><path d="M1140.88 204.66L1006.51 254.25" stroke="hsl(193.29999999999995, 48.3%, 77.7%)" stroke-width="1.5"></path><path d="M1140.88 204.66L1237.97 44.43" stroke="hsl(193.29999999999995, 48.3%, 77.7%)" stroke-width="1.5"></path><path d="M1140.88 204.66L1157.31 398.48" stroke="hsl(193.29999999999995, 48.3%, 77.7%)" stroke-width="1.5"></path><path d="M1140.88 204.66L1281.99 378.65" stroke="hsl(193.29999999999995, 48.3%, 77.7%)" stroke-width="1.5"></path><path d="M1157.31 398.48L1157.31 398.48" stroke="hsl(193.29999999999995, 48.3%, 77.7%)" stroke-width="1.5"></path><path d="M1157.31 398.48L1120.16 500.6" stroke="hsl(193.29999999999995, 48.3%, 77.7%)" stroke-width="1.5"></path><path d="M1157.31 398.48L1281.99 378.65" stroke="hsl(193.29999999999995, 48.3%, 77.7%)" stroke-width="1.5"></path><path d="M1157.31 398.48L1288.62 536.79" stroke="hsl(193.29999999999995, 48.3%, 77.7%)" stroke-width="1.5"></path><path d="M1120.16 500.6L1120.16 500.6" stroke="hsl(193.29999999999995, 48.3%, 77.7%)" stroke-width="1.5"></path><path d="M1120.16 500.6L997.67 528.24" stroke="hsl(193.29999999999995, 48.3%, 77.7%)" stroke-width="1.5"></path><path d="M1120.16 500.6L1288.62 536.79" stroke="hsl(193.29999999999995, 48.3%, 77.7%)" stroke-width="1.5"></path><path d="M1120.16 500.6L1281.99 378.65" stroke="hsl(193.29999999999995, 48.3%, 77.7%)" stroke-width="1.5"></path><path d="M1120.16 500.6L966.53 361.09" stroke="hsl(193.29999999999995, 48.3%, 77.7%)" stroke-width="1.5"></path><path d="M1446.19 -73.87L1446.19 -73.87" stroke="hsl(193.29999999999995, 48.3%, 77.7%)" stroke-width="1.5"></path><path d="M1446.19 -73.87L1283.63 -59.76" stroke="hsl(193.29999999999995, 48.3%, 77.7%)" stroke-width="1.5"></path><path d="M1446.19 -73.87L1406.73 108.53" stroke="hsl(193.29999999999995, 48.3%, 77.7%)" stroke-width="1.5"></path><path d="M1440.83 411.59L1440.83 411.59" stroke="hsl(193.29999999999995, 48.3%, 77.7%)" stroke-width="1.5"></path><path d="M1440.83 411.59L1454.22 509.17" stroke="hsl(193.29999999999995, 48.3%, 77.7%)" stroke-width="1.5"></path><path d="M1440.83 411.59L1281.99 378.65" stroke="hsl(193.29999999999995, 48.3%, 77.7%)" stroke-width="1.5"></path><path d="M1440.83 411.59L1428.05 243.26" stroke="hsl(193.29999999999995, 48.3%, 77.7%)" stroke-width="1.5"></path><path d="M1440.83 411.59L1288.62 536.79" stroke="hsl(193.29999999999995, 48.3%, 77.7%)" stroke-width="1.5"></path><path d="M1440.83 411.59L1427.64 678.99" stroke="hsl(193.29999999999995, 48.3%, 77.7%)" stroke-width="1.5"></path><path d="M1440.83 411.59L1270.27 195.05" stroke="hsl(193.29999999999995, 48.3%, 77.7%)" stroke-width="1.5"></path><path d="M1454.22 509.17L1454.22 509.17" stroke="hsl(193.29999999999995, 48.3%, 77.7%)" stroke-width="1.5"></path><path d="M1454.22 509.17L1288.62 536.79" stroke="hsl(193.29999999999995, 48.3%, 77.7%)" stroke-width="1.5"></path><path d="M1454.22 509.17L1427.64 678.99" stroke="hsl(193.29999999999995, 48.3%, 77.7%)" stroke-width="1.5"></path><path d="M1454.22 509.17L1281.99 378.65" stroke="hsl(193.29999999999995, 48.3%, 77.7%)" stroke-width="1.5"></path><path d="M1454.22 509.17L1428.05 243.26" stroke="hsl(193.29999999999995, 48.3%, 77.7%)" stroke-width="1.5"></path><path d="M-85 683.44L-85 683.44" stroke="hsl(193.29999999999995, 48.3%, 77.7%)" stroke-width="1.5"></path><path d="M-85 683.44L-64.58 794.88" stroke="hsl(193.29999999999995, 48.3%, 77.7%)" stroke-width="1.5"></path><path d="M-85 683.44L100.71 704.56" stroke="hsl(193.29999999999995, 48.3%, 77.7%)" stroke-width="1.5"></path><path d="M-85 683.44L95.22 848.11" stroke="hsl(193.29999999999995, 48.3%, 77.7%)" stroke-width="1.5"></path><path d="M-85 683.44L207.65 810.85" stroke="hsl(193.29999999999995, 48.3%, 77.7%)" stroke-width="1.5"></path><path d="M-85 683.44L260.08 657.51" stroke="hsl(193.29999999999995, 48.3%, 77.7%)" stroke-width="1.5"></path><path d="M-85 683.44L362.82 679.07" stroke="hsl(193.29999999999995, 48.3%, 77.7%)" stroke-width="1.5"></path><path d="M-64.58 794.88L-64.58 794.88" stroke="hsl(193.29999999999995, 48.3%, 77.7%)" stroke-width="1.5"></path><path d="M-64.58 794.88L95.22 848.11" stroke="hsl(193.29999999999995, 48.3%, 77.7%)" stroke-width="1.5"></path><path d="M-64.58 794.88L100.71 704.56" stroke="hsl(193.29999999999995, 48.3%, 77.7%)" stroke-width="1.5"></path><path d="M-64.58 794.88L207.65 810.85" stroke="hsl(193.29999999999995, 48.3%, 77.7%)" stroke-width="1.5"></path><path d="M-64.58 794.88L260.08 657.51" stroke="hsl(193.29999999999995, 48.3%, 77.7%)" stroke-width="1.5"></path><path d="M-64.58 794.88L362.82 679.07" stroke="hsl(193.29999999999995, 48.3%, 77.7%)" stroke-width="1.5"></path><path d="M100.71 704.56L100.71 704.56" stroke="hsl(193.29999999999995, 48.3%, 77.7%)" stroke-width="1.5"></path><path d="M100.71 704.56L95.22 848.11" stroke="hsl(193.29999999999995, 48.3%, 77.7%)" stroke-width="1.5"></path><path d="M100.71 704.56L207.65 810.85" stroke="hsl(193.29999999999995, 48.3%, 77.7%)" stroke-width="1.5"></path><path d="M100.71 704.56L260.08 657.51" stroke="hsl(193.29999999999995, 48.3%, 77.7%)" stroke-width="1.5"></path><path d="M95.22 848.11L95.22 848.11" stroke="hsl(193.29999999999995, 48.3%, 77.7%)" stroke-width="1.5"></path><path d="M95.22 848.11L207.65 810.85" stroke="hsl(193.29999999999995, 48.3%, 77.7%)" stroke-width="1.5"></path><path d="M260.08 657.51L260.08 657.51" stroke="hsl(193.29999999999995, 48.3%, 77.7%)" stroke-width="1.5"></path><path d="M260.08 657.51L362.82 679.07" stroke="hsl(193.29999999999995, 48.3%, 77.7%)" stroke-width="1.5"></path><path d="M260.08 657.51L207.65 810.85" stroke="hsl(193.29999999999995, 48.3%, 77.7%)" stroke-width="1.5"></path><path d="M260.08 657.51L403.97 832.89" stroke="hsl(193.29999999999995, 48.3%, 77.7%)" stroke-width="1.5"></path><path d="M207.65 810.85L207.65 810.85" stroke="hsl(193.29999999999995, 48.3%, 77.7%)" stroke-width="1.5"></path><path d="M207.65 810.85L403.97 832.89" stroke="hsl(193.29999999999995, 48.3%, 77.7%)" stroke-width="1.5"></path><path d="M207.65 810.85L362.82 679.07" stroke="hsl(193.29999999999995, 48.3%, 77.7%)" stroke-width="1.5"></path><path d="M362.82 679.07L362.82 679.07" stroke="hsl(193.29999999999995, 48.3%, 77.7%)" stroke-width="1.5"></path><path d="M362.82 679.07L403.97 832.89" stroke="hsl(193.29999999999995, 48.3%, 77.7%)" stroke-width="1.5"></path><path d="M362.82 679.07L560.27 646.4" stroke="hsl(193.29999999999995, 48.3%, 77.7%)" stroke-width="1.5"></path><path d="M403.97 832.89L403.97 832.89" stroke="hsl(193.29999999999995, 48.3%, 77.7%)" stroke-width="1.5"></path><path d="M403.97 832.89L528.02 819.46" stroke="hsl(193.29999999999995, 48.3%, 77.7%)" stroke-width="1.5"></path><path d="M554.56 542.36L554.56 542.36" stroke="hsl(193.29999999999995, 48.3%, 77.7%)" stroke-width="1.5"></path><path d="M528.02 819.46L528.02 819.46" stroke="hsl(193.29999999999995, 48.3%, 77.7%)" stroke-width="1.5"></path><path d="M528.02 819.46L695.97 826.4" stroke="hsl(193.29999999999995, 48.3%, 77.7%)" stroke-width="1.5"></path><path d="M528.02 819.46L560.27 646.4" stroke="hsl(193.29999999999995, 48.3%, 77.7%)" stroke-width="1.5"></path><path d="M528.02 819.46L703.26 709.61" stroke="hsl(193.29999999999995, 48.3%, 77.7%)" stroke-width="1.5"></path><path d="M703.26 709.61L703.26 709.61" stroke="hsl(193.29999999999995, 48.3%, 77.7%)" stroke-width="1.5"></path><path d="M703.26 709.61L695.97 826.4" stroke="hsl(193.29999999999995, 48.3%, 77.7%)" stroke-width="1.5"></path><path d="M703.26 709.61L688.06 545.01" stroke="hsl(193.29999999999995, 48.3%, 77.7%)" stroke-width="1.5"></path><path d="M703.26 709.61L831.41 854.09" stroke="hsl(193.29999999999995, 48.3%, 77.7%)" stroke-width="1.5"></path><path d="M695.97 826.4L695.97 826.4" stroke="hsl(193.29999999999995, 48.3%, 77.7%)" stroke-width="1.5"></path><path d="M695.97 826.4L831.41 854.09" stroke="hsl(193.29999999999995, 48.3%, 77.7%)" stroke-width="1.5"></path><path d="M695.97 826.4L560.27 646.4" stroke="hsl(193.29999999999995, 48.3%, 77.7%)" stroke-width="1.5"></path><path d="M695.97 826.4L688.06 545.01" stroke="hsl(193.29999999999995, 48.3%, 77.7%)" stroke-width="1.5"></path><path d="M803.1 381.64L803.1 381.64" stroke="hsl(193.29999999999995, 48.3%, 77.7%)" stroke-width="1.5"></path><path d="M803.1 381.64L966.53 361.09" stroke="hsl(193.29999999999995, 48.3%, 77.7%)" stroke-width="1.5"></path><path d="M803.1 381.64L688.06 545.01" stroke="hsl(193.29999999999995, 48.3%, 77.7%)" stroke-width="1.5"></path><path d="M803.1 381.64L1006.51 254.25" stroke="hsl(193.29999999999995, 48.3%, 77.7%)" stroke-width="1.5"></path><path d="M803.1 381.64L997.67 528.24" stroke="hsl(193.29999999999995, 48.3%, 77.7%)" stroke-width="1.5"></path><path d="M831.41 854.09L831.41 854.09" stroke="hsl(193.29999999999995, 48.3%, 77.7%)" stroke-width="1.5"></path><path d="M1006.51 254.25L1006.51 254.25" stroke="hsl(193.29999999999995, 48.3%, 77.7%)" stroke-width="1.5"></path><path d="M1006.51 254.25L966.53 361.09" stroke="hsl(193.29999999999995, 48.3%, 77.7%)" stroke-width="1.5"></path><path d="M1006.51 254.25L1128.31 97.49" stroke="hsl(193.29999999999995, 48.3%, 77.7%)" stroke-width="1.5"></path><path d="M966.53 361.09L966.53 361.09" stroke="hsl(193.29999999999995, 48.3%, 77.7%)" stroke-width="1.5"></path><path d="M966.53 361.09L997.67 528.24" stroke="hsl(193.29999999999995, 48.3%, 77.7%)" stroke-width="1.5"></path><path d="M966.53 361.09L1157.31 398.48" stroke="hsl(193.29999999999995, 48.3%, 77.7%)" stroke-width="1.5"></path><path d="M997.67 528.24L997.67 528.24" stroke="hsl(193.29999999999995, 48.3%, 77.7%)" stroke-width="1.5"></path><path d="M997.67 528.24L808.52 532.58" stroke="hsl(193.29999999999995, 48.3%, 77.7%)" stroke-width="1.5"></path><path d="M997.67 528.24L1157.31 398.48" stroke="hsl(193.29999999999995, 48.3%, 77.7%)" stroke-width="1.5"></path><path d="M997.67 528.24L1154.14 711.41" stroke="hsl(193.29999999999995, 48.3%, 77.7%)" stroke-width="1.5"></path><path d="M1154.29 -72.09L1154.29 -72.09" stroke="hsl(193.29999999999995, 48.3%, 77.7%)" stroke-width="1.5"></path><path d="M1154.29 -72.09L1283.63 -59.76" stroke="hsl(193.29999999999995, 48.3%, 77.7%)" stroke-width="1.5"></path><path d="M1154.29 -72.09L1237.97 44.43" stroke="hsl(193.29999999999995, 48.3%, 77.7%)" stroke-width="1.5"></path><path d="M1154.29 -72.09L1128.31 97.49" stroke="hsl(193.29999999999995, 48.3%, 77.7%)" stroke-width="1.5"></path><path d="M1154.29 -72.09L1140.88 204.66" stroke="hsl(193.29999999999995, 48.3%, 77.7%)" stroke-width="1.5"></path><path d="M1154.29 -72.09L1270.27 195.05" stroke="hsl(193.29999999999995, 48.3%, 77.7%)" stroke-width="1.5"></path><path d="M1128.31 97.49L1128.31 97.49" stroke="hsl(193.29999999999995, 48.3%, 77.7%)" stroke-width="1.5"></path><path d="M1128.31 97.49L1237.97 44.43" stroke="hsl(193.29999999999995, 48.3%, 77.7%)" stroke-width="1.5"></path><path d="M1154.14 711.41L1154.14 711.41" stroke="hsl(193.29999999999995, 48.3%, 77.7%)" stroke-width="1.5"></path><path d="M1154.14 711.41L1097.92 802.99" stroke="hsl(193.29999999999995, 48.3%, 77.7%)" stroke-width="1.5"></path><path d="M1154.14 711.41L1262.68 857.78" stroke="hsl(193.29999999999995, 48.3%, 77.7%)" stroke-width="1.5"></path><path d="M1097.92 802.99L1097.92 802.99" stroke="hsl(193.29999999999995, 48.3%, 77.7%)" stroke-width="1.5"></path><path d="M1097.92 802.99L1262.68 857.78" stroke="hsl(193.29999999999995, 48.3%, 77.7%)" stroke-width="1.5"></path><path d="M1283.63 -59.76L1283.63 -59.76" stroke="hsl(193.29999999999995, 48.3%, 77.7%)" stroke-width="1.5"></path><path d="M1283.63 -59.76L1237.97 44.43" stroke="hsl(193.29999999999995, 48.3%, 77.7%)" stroke-width="1.5"></path><path d="M1283.63 -59.76L1406.73 108.53" stroke="hsl(193.29999999999995, 48.3%, 77.7%)" stroke-width="1.5"></path><path d="M1237.97 44.43L1237.97 44.43" stroke="hsl(193.29999999999995, 48.3%, 77.7%)" stroke-width="1.5"></path><path d="M1270.27 195.05L1270.27 195.05" stroke="hsl(193.29999999999995, 48.3%, 77.7%)" stroke-width="1.5"></path><path d="M1270.27 195.05L1237.97 44.43" stroke="hsl(193.29999999999995, 48.3%, 77.7%)" stroke-width="1.5"></path><path d="M1270.27 195.05L1406.73 108.53" stroke="hsl(193.29999999999995, 48.3%, 77.7%)" stroke-width="1.5"></path><path d="M1270.27 195.05L1428.05 243.26" stroke="hsl(193.29999999999995, 48.3%, 77.7%)" stroke-width="1.5"></path><path d="M1270.27 195.05L1128.31 97.49" stroke="hsl(193.29999999999995, 48.3%, 77.7%)" stroke-width="1.5"></path><path d="M1270.27 195.05L1281.99 378.65" stroke="hsl(193.29999999999995, 48.3%, 77.7%)" stroke-width="1.5"></path><path d="M1281.99 378.65L1281.99 378.65" stroke="hsl(193.29999999999995, 48.3%, 77.7%)" stroke-width="1.5"></path><path d="M1281.99 378.65L1288.62 536.79" stroke="hsl(193.29999999999995, 48.3%, 77.7%)" stroke-width="1.5"></path><path d="M1288.62 536.79L1288.62 536.79" stroke="hsl(193.29999999999995, 48.3%, 77.7%)" stroke-width="1.5"></path><path d="M1262.68 857.78L1262.68 857.78" stroke="hsl(193.29999999999995, 48.3%, 77.7%)" stroke-width="1.5"></path><path d="M1262.68 857.78L1449.13 859.3" stroke="hsl(193.29999999999995, 48.3%, 77.7%)" stroke-width="1.5"></path><path d="M1262.68 857.78L1427.64 678.99" stroke="hsl(193.29999999999995, 48.3%, 77.7%)" stroke-width="1.5"></path><path d="M1262.68 857.78L988.25 852.03" stroke="hsl(193.29999999999995, 48.3%, 77.7%)" stroke-width="1.5"></path><path d="M1406.73 108.53L1406.73 108.53" stroke="hsl(193.29999999999995, 48.3%, 77.7%)" stroke-width="1.5"></path><path d="M1406.73 108.53L1428.05 243.26" stroke="hsl(193.29999999999995, 48.3%, 77.7%)" stroke-width="1.5"></path><path d="M1406.73 108.53L1237.97 44.43" stroke="hsl(193.29999999999995, 48.3%, 77.7%)" stroke-width="1.5"></path><path d="M1428.05 243.26L1428.05 243.26" stroke="hsl(193.29999999999995, 48.3%, 77.7%)" stroke-width="1.5"></path><path d="M1428.05 243.26L1281.99 378.65" stroke="hsl(193.29999999999995, 48.3%, 77.7%)" stroke-width="1.5"></path><path d="M1427.64 678.99L1427.64 678.99" stroke="hsl(193.29999999999995, 48.3%, 77.7%)" stroke-width="1.5"></path><path d="M1427.64 678.99L1449.13 859.3" stroke="hsl(193.29999999999995, 48.3%, 77.7%)" stroke-width="1.5"></path><path d="M1449.13 859.3L1449.13 859.3" stroke="hsl(193.29999999999995, 48.3%, 77.7%)" stroke-width="1.5"></path><path d="M1449.13 859.3L1154.14 711.41" stroke="hsl(193.29999999999995, 48.3%, 77.7%)" stroke-width="1.5"></path><circle r="25" cx="560.27" cy="646.4" fill="url(&quot;#SvgjsRadialGradient1057&quot;)"></circle><circle r="25" cx="688.06" cy="545.01" fill="url(&quot;#SvgjsRadialGradient1057&quot;)"></circle><circle r="25" cx="808.52" cy="532.58" fill="url(&quot;#SvgjsRadialGradient1057&quot;)"></circle><circle r="25" cx="953.88" cy="687.16" fill="url(&quot;#SvgjsRadialGradient1057&quot;)"></circle><circle r="25" cx="988.25" cy="852.03" fill="url(&quot;#SvgjsRadialGradient1057&quot;)"></circle><circle r="25" cx="1140.88" cy="204.66" fill="url(&quot;#SvgjsRadialGradient1057&quot;)"></circle><circle r="25" cx="1157.31" cy="398.48" fill="url(&quot;#SvgjsRadialGradient1057&quot;)"></circle><circle r="25" cx="1120.16" cy="500.6" fill="url(&quot;#SvgjsRadialGradient1057&quot;)"></circle><circle r="25" cx="1446.19" cy="-73.87" fill="url(&quot;#SvgjsRadialGradient1057&quot;)"></circle><circle r="25" cx="1440.83" cy="411.59" fill="url(&quot;#SvgjsRadialGradient1057&quot;)"></circle><circle r="25" cx="1454.22" cy="509.17" fill="url(&quot;#SvgjsRadialGradient1057&quot;)"></circle><circle r="5" cx="-85" cy="683.44" fill="#b3dae5"></circle><circle r="5" cx="-64.58" cy="794.88" fill="#b3dae5"></circle><circle r="5" cx="100.71" cy="704.56" fill="#b3dae5"></circle><circle r="5" cx="95.22" cy="848.11" fill="#b3dae5"></circle><circle r="5" cx="260.08" cy="657.51" fill="#b3dae5"></circle><circle r="5" cx="207.65" cy="810.85" fill="#b3dae5"></circle><circle r="5" cx="362.82" cy="679.07" fill="#b3dae5"></circle><circle r="5" cx="403.97" cy="832.89" fill="#b3dae5"></circle><circle r="5" cx="554.56" cy="542.36" fill="#b3dae5"></circle><circle r="5" cx="528.02" cy="819.46" fill="#b3dae5"></circle><circle r="5" cx="703.26" cy="709.61" fill="#b3dae5"></circle><circle r="5" cx="695.97" cy="826.4" fill="#b3dae5"></circle><circle r="5" cx="803.1" cy="381.64" fill="#b3dae5"></circle><circle r="5" cx="831.41" cy="854.09" fill="#b3dae5"></circle><circle r="5" cx="1006.51" cy="254.25" fill="#b3dae5"></circle><circle r="5" cx="966.53" cy="361.09" fill="#b3dae5"></circle><circle r="5" cx="997.67" cy="528.24" fill="#b3dae5"></circle><circle r="5" cx="1154.29" cy="-72.09" fill="#b3dae5"></circle><circle r="5" cx="1128.31" cy="97.49" fill="#b3dae5"></circle><circle r="5" cx="1154.14" cy="711.41" fill="#b3dae5"></circle><circle r="5" cx="1097.92" cy="802.99" fill="#b3dae5"></circle><circle r="5" cx="1283.63" cy="-59.76" fill="#b3dae5"></circle><circle r="5" cx="1237.97" cy="44.43" fill="#b3dae5"></circle><circle r="5" cx="1270.27" cy="195.05" fill="#b3dae5"></circle><circle r="5" cx="1281.99" cy="378.65" fill="#b3dae5"></circle><circle r="5" cx="1288.62" cy="536.79" fill="#b3dae5"></circle><circle r="5" cx="1262.68" cy="857.78" fill="#b3dae5"></circle><circle r="5" cx="1406.73" cy="108.53" fill="#b3dae5"></circle><circle r="5" cx="1428.05" cy="243.26" fill="#b3dae5"></circle><circle r="5" cx="1427.64" cy="678.99" fill="#b3dae5"></circle><circle r="5" cx="1449.13" cy="859.3" fill="#b3dae5"></circle></g><defs><mask id="SvgjsMask1056"><rect width="1280" height="720" fill="#ffffff"></rect></mask><radialGradient id="SvgjsRadialGradient1057"><stop stop-color="#ffffff" offset="0.1"></stop><stop stop-color="rgba(103, 180, 202, 1)" offset="0.2"></stop><stop stop-color="rgba(103, 180, 202, 0)" offset="1"></stop></radialGradient></defs></svg>